<?xml version="1.0" standalone="no"?>
<!DOCTYPE svg PUBLIC "-//W3C//DTD SVG 20010904//EN"
 "http://www.w3.org/TR/2001/REC-SVG-20010904/DTD/svg10.dtd">
<svg version="1.0" xmlns="http://www.w3.org/2000/svg"
 width="235.000000pt" height="235.000000pt" viewBox="0 0 235.000000 235.000000"
 preserveAspectRatio="xMidYMid meet">
<metadata>
Created by potrace 1.11, written by Peter Selinger 2001-2013
</metadata>
<g transform="translate(0.000000,235.000000) scale(0.100000,-0.100000)"
fill="#000000" stroke="none">
<path d="M1675 2175 c-43 -42 -33 -82 34 -127 25 -17 50 -38 55 -46 6 -11 13
-9 35 10 14 13 43 36 64 52 30 22 37 33 37 59 0 18 -7 41 -15 51 -18 24 -68
25 -93 3 -18 -16 -20 -16 -37 3 -24 27 -51 25 -80 -5z m193 -42 c-4 -23 -23
-26 -42 -7 -13 12 -14 19 -5 30 15 18 52 0 47 -23z"/>
<path d="M1276 2088 c-12 -103 -6 -228 15 -326 17 -80 19 -98 8 -105 -8 -4
-59 -33 -114 -63 l-100 -54 -66 29 c-36 16 -93 37 -125 46 -70 19 -267 31
-347 21 -52 -7 -57 -10 -57 -32 0 -13 9 -47 20 -76 17 -46 18 -53 5 -61 -26
-14 -15 -97 28 -212 9 -22 12 -44 7 -49 -27 -28 -169 92 -252 214 -18 27 -36
50 -40 50 -35 1 -50 -214 -24 -334 36 -159 109 -254 215 -277 125 -27 206 -79
246 -159 l24 -47 -38 -31 c-41 -33 -52 -31 -103 15 -14 14 -31 22 -37 19 -11
-7 -7 -69 12 -151 6 -27 10 -78 8 -111 -4 -108 45 -183 154 -235 103 -50 200
-38 289 35 28 22 56 35 89 39 26 4 61 14 78 22 29 16 30 16 20 -4 -14 -25 -14
-108 0 -116 12 -8 173 69 206 98 30 27 60 159 45 199 -6 15 -6 28 -2 28 21 0
71 55 80 88 8 31 18 41 59 60 27 12 51 22 55 22 3 0 13 -14 21 -30 12 -24 14
-39 6 -66 -9 -34 -4 -59 30 -151 16 -44 100 -40 284 11 53 15 57 25 27 60 -25
28 -133 96 -153 96 -9 0 -24 11 -33 24 -8 14 -23 27 -33 30 -15 5 -53 69 -53
89 0 4 19 7 43 7 43 0 105 -26 143 -61 11 -10 25 -19 31 -19 6 0 12 35 15 83
6 90 20 127 65 169 60 57 127 66 162 22 34 -44 51 -22 51 66 0 55 -26 101 -74
132 -20 13 -40 36 -46 52 -16 47 -12 118 10 156 44 77 45 81 27 91 -9 6 -17
15 -17 20 0 6 30 41 67 77 90 91 117 149 111 245 -9 138 -82 261 -171 285 -47
13 -67 7 -67 -22 -1 -66 -56 -253 -85 -284 -19 -21 -66 46 -73 103 -2 25 -8
48 -12 50 -4 3 -24 -13 -43 -34 -36 -40 -57 -105 -57 -180 l0 -39 -49 26 c-42
22 -53 36 -82 96 -76 157 -186 289 -304 366 -82 53 -91 52 -99 -12z m140 -49
c100 -79 190 -201 254 -345 17 -39 30 -53 54 -62 46 -17 114 -87 138 -141 41
-94 9 -213 -87 -319 -63 -69 -220 -182 -255 -182 -6 0 -10 26 -10 60 0 51 3
61 23 71 12 6 45 34 74 61 44 44 56 50 83 46 17 -3 33 -1 36 4 8 13 -6 84 -20
103 -11 16 -18 10 -60 -53 -26 -39 -65 -87 -87 -106 -55 -47 -181 -87 -318
-101 -18 -2 -37 -7 -41 -12 -11 -12 -30 -97 -30 -134 l0 -32 -50 6 c-109 13
-182 74 -202 168 -10 50 -19 67 -49 93 -26 22 -39 45 -48 80 -29 117 -122 226
-194 226 -26 0 -92 73 -103 114 l-6 26 139 0 c106 0 158 -5 217 -20 91 -23
164 -54 180 -76 10 -13 29 -6 141 55 72 39 136 74 143 78 11 7 10 16 -2 51
-30 84 -48 221 -40 312 3 47 8 88 11 93 6 10 37 -8 109 -64z m782 -82 c41 -39
64 -83 87 -164 35 -124 -6 -214 -148 -328 -84 -67 -87 -71 -67 -84 25 -17 25
-33 0 -56 -25 -23 -92 -22 -124 2 -16 11 -28 32 -31 53 -16 99 -28 140 -50
171 -34 45 -36 161 -4 226 l21 44 23 -49 c13 -27 21 -60 18 -73 -8 -42 49 -85
82 -61 14 9 83 234 91 292 3 25 8 51 10 59 7 21 54 4 92 -32z m-1568 -517
c109 -30 205 -233 156 -328 -9 -17 -16 -38 -16 -46 0 -13 4 -13 30 2 44 25 64
8 68 -57 3 -47 0 -55 -28 -81 -37 -35 -91 -47 -135 -31 -42 15 -91 13 -140 -4
-157 -57 -276 56 -315 302 -12 69 -5 209 10 218 4 3 33 -28 63 -69 55 -72 133
-146 156 -146 6 0 20 -9 30 -19 21 -21 31 -24 67 -22 35 2 34 23 -1 96 -38 78
-60 176 -41 187 15 11 55 10 96 -2z m1372 -182 c-10 -38 -58 -60 -89 -40 -10
6 -9 16 4 43 16 36 16 36 52 23 21 -7 35 -18 33 -26z m-302 17 c0 -8 -7 -15
-15 -15 -9 0 -12 6 -9 15 4 8 10 15 15 15 5 0 9 -7 9 -15z m189 -82 c1 -1 -9
-18 -24 -38 -15 -19 -30 -34 -32 -31 -2 2 1 24 8 50 10 41 14 45 28 34 9 -7
18 -13 20 -15z m300 -157 c17 -20 30 -72 24 -95 -4 -17 -7 -18 -31 -5 -15 8
-40 14 -56 14 -57 0 -76 71 -31 116 l25 25 29 -20 c15 -11 33 -27 40 -35z
m-899 10 c0 -11 -19 -15 -25 -6 -3 5 1 10 9 10 9 0 16 -2 16 -4z m-385 -136
c0 -27 -45 -58 -87 -59 -38 -1 -35 12 7 32 19 9 40 26 47 37 16 25 33 20 33
-10z m820 -56 c8 -50 -18 -117 -61 -158 -59 -54 -114 -79 -189 -84 -91 -6
-146 10 -190 54 -29 29 -35 42 -35 78 l0 43 40 -11 c33 -8 50 -7 88 6 26 9 63
19 82 23 83 15 172 58 206 98 28 33 29 33 41 13 7 -12 15 -40 18 -62z m-613
-7 c27 -18 48 -35 48 -39 0 -23 -214 6 -244 33 -5 4 3 22 18 39 14 17 26 36
26 41 0 11 88 -31 152 -74z m626 -245 c16 -48 10 -75 -14 -70 -20 4 -47 74
-38 100 10 31 36 16 52 -30z m-1058 -19 c25 31 50 36 50 8 0 -10 -10 -40 -21
-66 -36 -82 -12 -203 53 -261 32 -30 106 -66 148 -74 l35 -6 -24 -13 c-41 -22
-139 -18 -191 9 -114 58 -147 113 -137 225 3 35 13 78 22 94 16 32 5 51 -20
31 -16 -13 -21 -6 -30 43 l-7 38 50 -28 50 -28 22 28z m202 -20 c26 -24 22
-59 -16 -134 l-33 -66 -27 31 c-66 77 4 234 76 169z m918 -28 c0 -11 -7 -30
-15 -42 -18 -26 -84 -40 -96 -21 -15 23 -10 28 25 28 38 0 66 28 66 65 0 16 2
17 10 5 5 -8 10 -24 10 -35z m-422 -39 c4 -59 -2 -78 -23 -70 -11 5 -15 21
-15 66 0 51 2 59 18 56 13 -2 18 -15 20 -52z m492 18 c0 -2 -11 -14 -24 -27
-14 -14 -30 -43 -37 -66 -11 -37 -15 -41 -45 -41 -31 0 -64 21 -64 41 0 5 10
9 23 9 34 0 88 37 100 69 7 20 16 27 29 23 10 -2 18 -6 18 -8z m96 -59 c31
-20 30 -32 -3 -37 -16 -3 -49 -11 -75 -19 -26 -7 -50 -11 -53 -8 -6 6 18 69
32 82 11 12 70 1 99 -18z m-813 -94 c-7 -11 -62 24 -76 48 -31 53 -18 54 31 5
26 -27 46 -51 45 -53z m-199 40 c8 -49 43 -93 99 -120 58 -29 14 -29 -52 0
-61 26 -75 50 -72 127 1 45 17 40 25 -7z m397 -4 c9 -3 28 1 43 8 30 16 37 9
25 -22 -10 -27 -52 -39 -85 -24 -28 12 -39 34 -30 58 6 14 8 14 19 1 6 -8 19
-18 28 -21z m21 -75 c37 3 39 3 33 -22 -7 -26 -42 -70 -57 -70 -4 0 -8 11 -8
24 0 28 -37 56 -74 56 -20 0 -24 4 -19 18 14 40 24 43 56 16 24 -20 39 -25 69
-22z m-67 -62 c22 -24 12 -39 -50 -74 -34 -18 -45 -21 -49 -11 -6 17 9 72 25
91 17 20 53 17 74 -6z"/>
<path d="M1529 1598 c-44 -86 -32 -279 17 -286 18 -3 234 129 234 142 0 22
-45 117 -63 134 -31 29 -89 52 -131 52 -32 0 -38 -5 -57 -42z m141 -11 c34
-22 62 -62 74 -104 6 -19 -5 -30 -85 -83 -50 -33 -97 -60 -104 -60 -13 0 -25
43 -25 88 0 24 1 24 19 8 29 -26 55 -17 59 20 4 38 -32 88 -59 81 -23 -6 -23
-6 -2 38 15 31 21 35 53 35 22 0 51 -9 70 -23z"/>
<path d="M1068 1350 c-15 -4 -44 -18 -64 -31 -36 -22 -36 -22 -32 -83 4 -63
44 -160 79 -192 16 -14 21 -13 71 12 79 40 169 103 203 142 l29 34 -40 38
c-61 57 -187 98 -246 80z m62 -58 c0 -25 7 -46 20 -60 41 -44 82 -15 60 42 -5
15 -10 29 -10 32 0 11 102 -49 107 -63 15 -38 -220 -201 -245 -170 -30 37 -62
118 -64 162 -3 50 -3 50 42 73 24 12 55 22 67 22 20 0 23 -5 23 -38z"/>
<path d="M374 2096 c-4 -10 -18 -16 -40 -16 -40 0 -56 -22 -42 -60 7 -21 20
-30 62 -42 l53 -14 12 25 c6 14 18 37 26 51 12 21 12 28 1 45 -17 25 -64 32
-72 11z m36 -40 c-13 -13 -35 7 -25 24 5 8 11 8 21 -1 10 -8 12 -15 4 -23z"/>
<path d="M978 1881 c-9 -15 -16 -17 -30 -10 -28 15 -58 -6 -58 -42 0 -24 6
-32 38 -45 20 -9 44 -20 53 -24 11 -6 24 4 49 41 32 47 32 49 16 74 -20 30
-51 33 -68 6z m52 -25 c0 -3 -4 -8 -10 -11 -5 -3 -10 -1 -10 4 0 6 5 11 10 11
6 0 10 -2 10 -4z"/>
<path d="M165 795 c-14 -13 -25 -28 -25 -34 0 -5 -14 -3 -30 6 -28 13 -33 13
-55 -1 -31 -21 -40 -57 -23 -93 10 -21 27 -33 73 -48 33 -11 65 -24 72 -28 7
-5 16 1 24 15 7 13 25 40 42 62 39 49 40 91 3 123 -34 29 -51 29 -81 -2z m50
-36 c4 -6 -1 -17 -11 -24 -27 -20 -32 -18 -26 10 4 26 26 34 37 14z"/>
</g>
</svg>
